<?xml version="1.0" standalone="no"?>
<!DOCTYPE svg PUBLIC "-//W3C//DTD SVG 20010904//EN"
 "http://www.w3.org/TR/2001/REC-SVG-20010904/DTD/svg10.dtd">
<svg version="1.0" xmlns="http://www.w3.org/2000/svg"
 width="25.000000pt" height="25.000000pt" viewBox="0 0 25.000000 25.000000"
 preserveAspectRatio="xMidYMid meet">

<g transform="translate(0.000000,25.000000) scale(0.100000,-0.100000)"
fill="#000000" stroke="none">
<path d="M7 243 c-4 -3 -7 -21 -7 -40 l0 -33 55 0 55 0 0 40 0 40 -48 0 c-27
0 -52 -3 -55 -7z m93 -38 c0 -22 -4 -25 -40 -25 -36 0 -40 3 -40 25 0 23 4 25
40 25 36 0 40 -2 40 -25z"/>
<path d="M142 178 l3 -73 50 0 50 0 0 70 0 70 -53 3 -53 3 3 -73z m88 -3 l0
-55 -40 0 -40 0 0 55 0 55 40 0 40 0 0 -55z"/>
<path d="M4 137 c-3 -8 -4 -41 -2 -73 l3 -59 53 -3 53 -3 -3 73 -3 73 -48 3
c-34 2 -49 -1 -53 -11z m96 -62 l0 -55 -40 0 -40 0 0 55 0 55 40 0 40 0 0 -55z"/>
<path d="M140 39 l0 -40 53 3 52 3 3 38 3 37 -55 0 -56 0 0 -41z m90 6 c0 -22
-4 -25 -40 -25 -36 0 -40 3 -40 25 0 23 4 25 40 25 36 0 40 -2 40 -25z"/>
</g>
</svg>
